<svg width="50%" height="50%" viewBox="0 0 800 800" fill="none" xmlns="http://www.w3.org/2000/svg">
    <path class="logo-path" d="M350 25V50H400H450V100V150H525H600V125V100H550H500L499.8 50.2L499.5 0.499998L424.8 0.199998L350 -2.23517e-06V25ZM493 54.7C493 102.3 493 102.4 495.2 104.7L497.3 107H545.2H593V125V143H525H457V95.3C457 47.7 457 47.6 454.8 45.3L452.7 43H404.8H357V25V7H425H493V54.7Z" fill="white"/>
    <path class="logo-path" d="M289 3.5C284.3 4.9 273.6 8.3 265.3 11.2L250 16.4V83.2V150H300H350V200V250H375H400V175V100H350H300V50.5C300 11.5 299.7 0.999996 298.8 1.1C298.1 1.1 293.7 2.2 289 3.5ZM293 56.2C293 102.2 293 102.4 295.2 104.7L297.3 107H345.2H393V175V243H375H357V195.3C357 147.7 357 147.6 354.8 145.3L352.7 143H304.8H257V82.1V21.3L265.8 18.2C277.3 14.2 290.2 10.1 291.8 10C292.7 10 293 19.9 293 56.2Z" fill="white"/>
    <path class="logo-path" d="M109.2 109.3L100 118.5V134.3V150H125H150V200V250H225H300V225V200H250H200V150V100H159.2H118.5L109.2 109.3ZM193 154.7C193 202.3 193 202.4 195.2 204.7L197.3 207H245.2H293V225V243H225H157V195.3C157 147.7 157 147.6 154.8 145.3C152.7 143 152.4 143 129.8 143H107V131.3V119.6L113.2 113.3L119.4 107H156.2H193V154.7Z" fill="white"/>
    <path class="logo-path" d="M650 150V200H600H550V235V270H553.5H557V238.5V207H604.8H652.7L654.8 204.7C657 202.4 657 202.3 657 154.7V107H668.8H680.6L686.8 113.3L693 119.6V181.3V243H645.2H597.3L595.2 245.3C593.2 247.4 593 248.7 593 258.8V270H596.5H600V260V250H650H700V184.2V118.5L690.7 109.2L681.5 100H665.7H650V150Z" fill="white"/>
    <path class="logo-path" d="M50 225V250H33.2H16.4L10.7 266.7C7.6 276 3.9 287.8 2.5 293L0 302.5V376.2V450H25H50V375V300H75H100V250V200H75H50V225ZM93 250V293H70.3C48.4 293 47.6 293.1 45.3 295.2L43 297.3V370.2V443H25H6.9L7.2 370.7L7.5 298.5L11.3 286.5C13.4 279.9 16.5 270.6 18.2 265.7L21.3 257H36.8C58.6 257 57 259.1 57 229.8V207H75H93V250Z" fill="white"/>
    <path class="logo-path" d="M450 235C450 265.9 450.2 270 451.6 270.8C452.5 271.3 454 274.6 455 278.1L456.9 284.5V245.7L457 207H475H493V275V343H482.5C471.5 343 471.4 343 472.6 347.7C473.2 349.9 473.6 350 486.6 350H500V275V200H475H450V235Z" fill="white"/>
    <path class="logo-path" d="M150 325V350H157H164V346.5C164 343.2 163.8 343 160.5 343H157V325V307H160.5C163.8 307 164 306.8 164 303.5V300H157H150V325Z" fill="white"/>
    <path class="logo-path" d="M650 350V400H643H636V403.5V407H644.3C658.1 407 657 411.5 657 354.7V307H725H793V325V343H745.2H697.3L695.2 345.3C693 347.6 693 347.7 693 395.3V443H664.5H636V446.5V450H668H700V400V350H750H800L799.8 325.2L799.5 300.5L724.8 300.2L650 300V350Z" fill="white"/>
    <path class="logo-path" d="M250 346.5V350H275H300V362V374H303.5H307V360.7C307 341.7 309.3 343 276.2 343H250V346.5Z" fill="white"/>
    <path class="logo-path" d="M100 450V500H50.5C23.3 500 1 500.3 1 500.8C1 502.8 5.6 518.1 10.7 533.2L16.4 550H83.2H150V500V450H157H164V446.5V443H155.7C141.9 443 143 438.5 143 495.3V543H82.1H21.3L18.6 535.4C15.4 526.5 10 509.1 10 507.9C10 507.4 30.4 507 56.3 507H102.7L104.8 504.7C107 502.4 107 502.3 107 454.7V407H135.5H164V403.5V400H132H100V450Z" fill="white"/>
    <path class="logo-path" d="M552.6 410.5C550.4 419.4 550 423.1 550 435.5V450H554.5C559 450 559 450 559 446.5C559 444.6 558.6 443 558 443C557.4 443 557 436.3 557 425C557 413.7 557.4 407 558 407C558.6 407 559 405.4 559 403.5C559 400.7 558.6 400 557.1 400C555.6 400 554.8 401.8 552.6 410.5Z" fill="white"/>
    <path class="logo-path" d="M750 450V500H700H650V550V600H675H700V575V550H741.8H783.6L789.3 533.2C792.4 524 796.1 512.2 797.5 507L800 497.5V448.7V400H775H750V450ZM792.8 454.2L792.5 501.5L788.7 513.5C786.6 520.1 783.5 529.4 781.8 534.2L778.7 543H738.2C697.9 543 697.6 543 695.3 545.2C693 547.3 693 547.6 693 570.2V593H675H657V550V507H704.7C752.3 507 752.4 507 754.7 504.8L757 502.7V454.8V407H775H793.1L792.8 454.2Z" fill="white"/>
    <path class="logo-path" d="M300 525V600H325H350V565V530H346.5H343V561.5V593H325H307V525V457H318.5H330V453.5V450H315H300V525Z" fill="white"/>
    <path class="logo-path" d="M530.7 500.7C530.5 501.2 530 502.7 529.6 504.2L529 507H544H559V503.5V500H545.1C537.4 500 530.9 500.3 530.7 500.7Z" fill="white"/>
    <path class="logo-path" d="M248.2 528.5C247.5 529.3 246 530 245 530C243 530 243 531 243 586.5V643H195.2H147.3L145.2 645.3C143 647.6 143 648.1 143 680.4V713.2L136.8 708C133.3 705.2 125.2 697.9 118.7 691.8L107 680.9V643.9V607H154.8H202.7L204.8 604.7C207 602.4 207 602 207 566.2V530H203.5H200V565V600H150H100V640.9V681.7L114.8 696.1C122.9 704 134.2 714.2 139.8 718.8L150 727.1V688.6V650H200H250V588.5C250 554.7 249.9 527 249.8 527C249.6 527.1 248.9 527.7 248.2 528.5Z" fill="white"/>
    <path class="logo-path" d="M450 540V550H525H600V540V530H596.5H593V536.5V543H525H457V536.5V530H453.5H450V540Z" fill="white"/>
    <path class="logo-path" d="M400 625V650H475H550V675V700H615.8H681.5L690.8 690.7L700 681.5V665.7V650H650H600V625V600H500H400V625ZM593 629.7C593 651.6 593.1 652.4 595.2 654.7L597.3 657H645.2H693V668.7V680.4L686.8 686.7L680.6 693H618.8H557V670.3C557 648.4 556.9 647.6 554.8 645.3L552.7 643H479.8H407V625V607H500H593V629.7Z" fill="white"/>
    <path class="logo-path" d="M300 700V750H375H450V775V800L474.8 799.8L499.5 799.5L499.8 749.7L500 700H425H350V675V650H325H300V700ZM343 679.7C343 701.6 343.1 702.4 345.2 704.7L347.3 707H420.2H493V750V793H475H457V770.3C457 748.4 456.9 747.6 454.8 745.3L452.7 743H379.8H307V700V657H325H343V679.7Z" fill="white"/>
    <path class="logo-path" d="M200 730V760L214.8 767.4C227.9 774 248 783 249.4 783C249.8 783 250 764.3 250 741.5V700H225H200V730ZM243 740C243 770.9 242.9 772.9 241.3 772.3C240.3 772 232.2 768.2 223.3 763.9L207 756.1V731.6V707H225H243V740Z" fill="white"/>
    <path class="logo-path" d="M550 766.5C550 775.6 550.2 783 550.6 783C553.8 783 593.5 763.7 608 755.1L616.5 750H583.3H550V766.5ZM576.5 764.1C568.8 767.8 561.3 771.4 559.8 771.9L557 772.9V764.9V757L573.8 757.1L590.5 757.2L576.5 764.1Z" fill="white"/>
    <path class="logo-text" d="M170 400V525H207.5H245V481.5V438H282H319V408.5V379H282H245V356.5V334H290.5H336V429.5V525H368.6H401.2L400.6 438.7C400.3 391.3 399.7 348.3 399.4 343.2C398.9 335.7 399.1 334 400.2 334C401.3 334 402.5 338.7 404.9 351.7C406.7 362 416.6 402.4 428.2 447.2L448.3 525H483.4H518.5L538.3 443.7C549.2 399.1 559.4 356.2 560.9 348.5C562.8 339.1 564.2 334.4 565.1 334.2C566.3 334 566.4 336.2 565.9 347.2C565.5 354.5 565.2 397.5 565.1 442.7L565 525H598H631V400V275H579.6C531.4 275 528.1 275.1 527.6 276.7C523.7 290.3 495 415.4 492.7 429.2C491 439.6 489.3 448 488.9 448C488.5 448 487.9 445.2 487.5 441.7C485.7 426.2 482.1 409.9 466 346.4C456.6 309.1 448.7 277.7 448.4 276.7C447.9 275.1 440.4 275 308.9 275H170V400Z" fill="white"/>
    <defs>
        <style>

        .logo-path {
            fill-opacity:0;
            stroke:white;
            stroke-width: 2px;
            stroke-dashoffset:1250;
            stroke-dasharray:1250;
            stroke-linejoin:'bevel';
            stroke-linecap:'square';
            animation: draw-path 3s ease-in-out forwards, fill-path 3s linear forwards;
            animation-delay: .5s;
            } 

        
        .logo-text { 
            fill-opacity: 0;
            animation: fill-text ease-in-out 3s forwards;
            animation-delay: .5s;

            }
        @keyframes draw-path {
            0% {
                stroke-dashoffset: 1250;
            }
            100% {
                stroke-dashoffset: 0;
            }
        }
        @keyframes fill-text {
            0% {
                fill-opacity: 0; 
            }

            100% {
                fill-opacity: 1; 
            }
        }                 
        @keyframes fill-path {

            0% {
                fill-opacity: 0; 
            }

            80% {
                fill-opacity: 0; 
            }

            100% {
                fill-opacity: 1; 
            }
        }     
            
        </style>
    </defs>    
</svg>